#!OML:ASF I:\Actors\actors\Patient Classification 2\Patient 1\Session 1\actor1.ASF
:FULLY-SPECIFIED
:DEGREES
140
root -0.412118 18.6562 5.74683 1.28818 -2.63133 -1.78429
lowerback 2.67677 -2.02815 1.50261
upperback -2.21959 -2.55836 2.48973
thorax -3.73893 -1.27919 1.87455
lowerneck -9.52713 -8.61283 -10.5193
upperneck 33.8908 -13.8143 9.13357
head 14.7405 -6.2993 3.33607
rclavicle 2.88238e-015 -1.03368e-014
rhumerus -61.2961 12.7814 -88.5796
rradius 71.5909
rwrist -6.70044
rhand 0.406887 -40.3012
rfingers 7.12502
rthumb 25.98 -68.5454
lclavicle 2.88238e-015 -1.03368e-014
lhumerus -19.9617 -49.6116 104.545
lradius 78.249
lwrist 23.3631
lhand 3.18157 -19.2914
lfingers 7.12502
lthumb 28.634 8.53467
rfemur 0 0 0
rtibia 0
rfoot 0 0
rtoes 0
lfemur -3.6137 -2.27741 -13.1102
ltibia 22.6478
lfoot -24.4354 14.8277
ltoes -55.0692
141
root -0.398147 18.658 5.7375 1.35047 -2.74216 -1.59956
lowerback 2.86478 -2.32879 1.6525
upperback -2.16596 -2.94342 2.64551
thorax -3.78199 -1.47258 1.98147
lowerneck -9.71403 -8.56698 -10.4224
upperneck 34.0346 -13.59 8.62079
head 14.7587 -6.2454 3.14137
rclavicle -5.91633e-014 3.26007e-014
rhumerus -61.9931 13.904 -88.5634
rradius 74.1073
rwrist -7.97332
rhand 0.525134 -40.6499
rfingers 7.12502
rthumb 26.0933 -68.8774
lclavicle -5.91633e-014 3.26007e-014
lhumerus -17.1474 -51.0403 103.51
lradius 77.9481
lwrist 22.6423
lhand 0.0370897 -19.9795
lfingers 7.12502
lthumb 25.6259 8.31613
rfemur 0 0 0
rtibia 0
rfoot 0 0
rtoes 0
lfemur -3.71575 -1.98259 -13.3248
ltibia 22.6468
lfoot -24.3141 14.679
ltoes -54.9724
142
root -0.382062 18.6578 5.7309 1.32376 -2.92352 -1.46755
lowerback 2.90932 -2.61223 1.86751
upperback -1.92752 -3.31323 2.78283
thorax -3.55726 -1.66061 2.01907
lowerneck -10.0518 -8.52254 -10.264
upperneck 34.05 -13.4178 8.29158
head 14.772 -6.17978 2.99464
rclavicle -2.90723e-014 -3.97569e-015
rhumerus -62.4844 14.9416 -88.5977
rradius 76.5144
rwrist -9.62269
rhand -0.183866 -40.2986
rfingers 7.12502
rthumb 25.4142 -68.6245
lclavicle -2.90723e-014 -3.97569e-015
lhumerus -13.9976 -52.4843 102.036
lradius 77.3852
lwrist 21.6967
lhand 0.520788 -21.4283
lfingers 7.12502
lthumb 26.0891 6.79981
rfemur 0 0 0
rtibia 0
rfoot 0 0
rtoes 0
lfemur -3.67431 -1.69654 -13.5059
ltibia 22.6161
lfoot -24.1972 14.614
ltoes -54.948
143
root -0.367138 18.6583 5.72629 1.26223 -3.15592 -1.32569
lowerback 2.68791 -2.89735 1.94268
upperback -1.46016 -3.70885 2.97807
thorax -2.93383 -1.85811 2.16899
lowerneck -10.5254 -8.42648 -10.065
upperneck 33.8256 -13.1479 8.01337
head 14.693 -6.05769 2.8714
rclavicle 1.68113e-014 8.74653e-015
rhumerus -62.6209 16.1224 -88.6236
rradius 78.8169
rwrist -11.9404
rhand -2.04778 -39.6029
rfingers 7.12502
rthumb 23.6276 -68.1711
lclavicle 1.68113e-014 8.74653e-015
lhumerus -10.2938 -53.7033 99.9887
lradius 76.7087
lwrist 20.7311
lhand -0.240933 -22.118
lfingers 7.12502
lthumb 25.3596 6.21572
rfemur 0 0 0
rtibia 0
rfoot 0 0
rtoes 0
lfemur -3.57906 -1.39516 -13.6975
ltibia 22.5887
lfoot -24.1388 14.5504
ltoes -55.0395
144
root -0.355276 18.6594 5.72364 1.25993 -3.40679 -1.16495
lowerback 3.30443 -3.09607 2.29327
upperback -1.6513 -3.92466 3.02767
thorax -3.49502 -1.97153 2.08451
lowerneck -10.5168 -8.34348 -9.88325
upperneck 33.9651 -12.9689 7.66221
head 14.6836 -6.0033 2.73092
rclavicle -9.97185e-015 2.38542e-015
rhumerus -63.7758 16.9114 -88.8989
rradius 81.212
rwrist -14.1823
rhand -3.5122 -39.2377
rfingers 7.12502
rthumb 22.2223 -67.9802
lclavicle -9.97185e-015 2.38542e-015
lhumerus -8.4717 -54.768 99.3477
lradius 75.9843
lwrist 19.6978
lhand -0.710183 -22.9527
lfingers 7.12502
lthumb 24.91 5.44408
rfemur 0 0 0
rtibia 0
rfoot 0 0
rtoes 0
lfemur -3.53718 -1.02822 -13.8864
ltibia 22.5595
lfoot -24.0897 14.4543
ltoes -55.1221
145
root -0.343045 18.663 5.72513 1.50068 -3.61155 -1.05757
lowerback 3.14853 -3.31215 2.60596
upperback -1.54942 -4.20533 3.14845
thorax -3.31111 -2.11671 2.03834
lowerneck -10.827 -8.31717 -9.76404
upperneck 33.9306 -12.8472 7.42841
head 14.6902 -5.95516 2.62268
rclavicle 2.56556e-014 2.38542e-015
rhumerus -64.2991 17.7435 -88.9726
rradius 83.6393
rwrist -16.4193
rhand -4.30075 -38.98
rfingers 7.12502
rthumb 21.4651 -67.8107
lclavicle 2.56556e-014 2.38542e-015
lhumerus -5.53284 -55.8171 97.7192
lradius 75.0792
lwrist 18.9719
lhand -1.18538 -23.5002
lfingers 7.12502
lthumb 24.4545 4.95886
rfemur 0 0 0
rtibia 0
rfoot 0 0
rtoes 0
lfemur -3.76216 -0.662195 -14.0073
ltibia 22.534
lfoot -24.0002 14.349
ltoes -55.1115
146
root -0.340919 18.6616 5.72952 1.38859 -3.96489 -0.988561
lowerback 2.8899 -3.50262 2.65846
upperback -1.03941 -4.48482 3.3604
thorax -2.62207 -2.25376 2.20072
lowerneck -11.3613 -8.29824 -9.67078
upperneck 33.7019 -12.6963 7.23725
head 14.6603 -5.88503 2.53032
rclavicle -6.15736e-014 1.03368e-014
rhumerus -64.3772 18.6907 -88.9215
rradius 86.0851
rwrist -18.6217
rhand -5.40443 -38.3931
rfingers 7.12502
rthumb 20.4048 -67.341
lclavicle -6.15736e-014 1.03368e-014
lhumerus -1.31257 -56.9251 94.8665
lradius 74.0791
lwrist 18.8062
lhand -1.77086 -23.6829
lfingers 7.12502
lthumb 23.8932 4.85083
rfemur 0 0 0
rtibia 0
rfoot 0 0
rtoes 0
lfemur -3.52528 -0.0852318 -14.0445
ltibia 22.4693
lfoot -23.9152 14.0989
ltoes -55.1322
147
root -0.32226 18.6632 5.7315 1.53015 -4.19883 -0.831883
lowerback 2.99087 -3.73828 3.02791
upperback -1.06544 -4.77435 3.48454
thorax -2.72111 -2.40316 2.149
lowerneck -11.4916 -8.24217 -9.50202
upperneck 33.6767 -12.4803 6.77819
head 14.5965 -5.82646 2.34736
rclavicle 9.14161e-014 1.27222e-014
rhumerus -65.2949 19.6617 -89.1722
rradius 88.5538
rwrist -20.2527
rhand -7.2699 -36.9696
rfingers 7.12502
rthumb 18.6112 -66.0993
lclavicle 9.14161e-014 1.27222e-014
lhumerus 1.83035 -57.9273 92.7185
lradius 73.1478
lwrist 18.8918
lhand -2.3668 -23.8538
lfingers 7.12502
lthumb 23.3215 4.75351
rfemur 0 0 0
rtibia 0
rfoot 0 0
rtoes 0
lfemur -3.60887 0.295169 -14.2623
ltibia 22.3771
lfoot -23.7838 14.0338
ltoes -55.1707
